# xmcd CD database file
#
# Track frame offsets:
#	150
#	14496
#	26701
#	46515
#	59614
#	73093
#	85771
#	102666
#	116510
#	134573
#	152523
#	166286
#	178895
#	195285
#	214093
#
# Disc length: 3081 seconds
#
# Revision: 0
# Processed by: cddbd v1.5.2PL0 Copyright (c) Steve Scherf et al.
# Submitted via: CDex 1.51
#
DISCID=cf0c070f
DTITLE=Larry Gatlin and the Gatlin Bros. - Larry Gatlin Karaoke
DYEAR=1900
DGENRE=Country
TTITLE0=Houston (Means I'm One Day Closer to You)
TTITLE1=Night Time Magic
TTITLE2=I've Done Enough Dyin' Today
TTITLE3=Broken Lady
TTITLE4=Statues Without Hearts
TTITLE5=All the Gold in California
TTITLE6=She Used to be Somebody's Baby
TTITLE7=I Don't Wanna Cry
TTITLE8=Love is Just a Game
TTITLE9=I Just Wish You were Someone I Love
TTITLE10=Take Me to Your Lovin' Place
TTITLE11=What are We Doin' Lonesome
TTITLE12=Sure Feels Like Love
TTITLE13=Talkin' to the Moon
TTITLE14=Love of a Lifetime
EXTD=
EXTT0=
EXTT1=
EXTT2=
EXTT3=
EXTT4=
EXTT5=
EXTT6=
EXTT7=
EXTT8=
EXTT9=
EXTT10=
EXTT11=
EXTT12=
EXTT13=
EXTT14=
PLAYORDER=
